<?xml version="1.0" encoding="UTF-8" standalone="no"?>
<!-- Created with Inkscape (http://www.inkscape.org/) -->

<svg
   xmlns:dc="http://purl.org/dc/elements/1.1/"
   xmlns:cc="http://creativecommons.org/ns#"
   xmlns:rdf="http://www.w3.org/1999/02/22-rdf-syntax-ns#"
   xmlns:svg="http://www.w3.org/2000/svg"
   xmlns="http://www.w3.org/2000/svg"
   xmlns:sodipodi="http://sodipodi.sourceforge.net/DTD/sodipodi-0.dtd"
   xmlns:inkscape="http://www.inkscape.org/namespaces/inkscape"
   width="210mm"
   height="297mm"
   viewBox="0 0 210 297"
   version="1.1"
   id="svg8"
   inkscape:version="0.92.3 (2405546, 2018-03-11)"
   sodipodi:docname="admin.svg">
  <defs
     id="defs2" />
  <sodipodi:namedview
     id="base"
     pagecolor="#ffffff"
     bordercolor="#666666"
     borderopacity="1.0"
     inkscape:pageopacity="0.0"
     inkscape:pageshadow="2"
     inkscape:zoom="0.175"
     inkscape:cx="1524.4896"
     inkscape:cy="879.70448"
     inkscape:document-units="mm"
     inkscape:current-layer="layer1"
     showgrid="false"
     inkscape:window-width="1600"
     inkscape:window-height="841"
     inkscape:window-x="0"
     inkscape:window-y="28"
     inkscape:window-maximized="1" />
  <metadata
     id="metadata5">
    <rdf:RDF>
      <cc:Work
         rdf:about="">
        <dc:format>image/svg+xml</dc:format>
        <dc:type
           rdf:resource="http://purl.org/dc/dcmitype/StillImage" />
        <dc:title />
      </cc:Work>
    </rdf:RDF>
  </metadata>
  <g
     inkscape:label="Capa 1"
     inkscape:groupmode="layer"
     id="layer1">
    <path
       style="fill:#000000;stroke-width:0.23347233"
       d="m 138.64346,265.08373 v -6.86049 l -1.05226,-0.29429 c -3.00857,-0.84145 -8.57068,-3.6261 -11.6856,-5.85038 -1.83965,-1.31363 -4.18109,-3.36402 -5.87599,-5.14558 l -1.2239,-1.28646 -5.14538,3.30642 c -2.82996,1.81853 -5.22,3.30468 -5.31118,3.30257 -0.21413,-0.005 -10.50891,-19.8251 -10.54804,-20.30771 -0.0188,-0.23077 1.8431,-1.57552 5.06556,-3.65877 4.42614,-2.8614 5.09208,-3.36978 5.07181,-3.87179 -0.0128,-0.31783 -0.30852,-2.01734 -0.65709,-3.77667 -0.58839,-2.96973 -0.63377,-3.5776 -0.63377,-8.48909 0,-5.53378 -0.0342,-5.22771 1.36066,-12.20495 0.0899,-0.44988 -0.53959,-0.92611 -4.84517,-3.6653 -2.72169,-1.73152 -5.08751,-3.29038 -5.25736,-3.46414 -0.25995,-0.26592 0.52658,-1.92516 4.96935,-10.48319 2.903,-5.59199 5.30561,-10.20868 5.33915,-10.2593 0.0336,-0.0506 2.42515,1.42113 5.31471,3.27056 l 5.25375,3.36261 1.01387,-1.08133 c 4.26175,-4.54533 10.02829,-8.34661 15.9579,-10.5194 l 2.88211,-1.0561 0.0588,-6.78458 0.0589,-6.78457 10.68873,-0.0639 10.68874,-0.0639 0.003,6.83055 0.003,6.83054 2.95918,1.05722 c 5.72658,2.04591 10.6654,5.26671 15.81279,10.31213 l 1.30675,1.28087 5.17962,-3.30701 c 2.84879,-1.81884 5.24974,-3.22569 5.33546,-3.12632 0.0857,0.0994 2.51377,4.71614 5.39569,10.25945 4.64634,8.93719 5.19857,10.11228 4.87557,10.37463 -0.20035,0.16272 -2.58551,1.71294 -5.30034,3.44492 l -4.93606,3.14908 0.30095,1.23994 c 1.66627,6.86535 1.79024,13.67465 0.3844,21.11586 -0.3011,1.59376 -0.49451,2.9929 -0.42979,3.1092 0.0647,0.1163 2.41162,1.67305 5.21535,3.45947 2.80372,1.7864 5.09769,3.30759 5.09769,3.38043 0,0.28931 -10.53361,20.47917 -10.68839,20.48651 -0.0912,0.005 -2.47776,-1.4778 -5.30348,-3.29361 l -5.13768,-3.30147 -1.53939,1.58306 c -4.38329,4.50768 -9.63475,7.9114 -15.54466,10.07525 l -2.87987,1.05442 -0.0589,6.78753 -0.0589,6.78752 h -10.73991 -10.74061 z m 15.98388,-24.64294 c 4.90749,-1.11083 9.01673,-3.49538 12.66721,-7.35067 11.66684,-12.32135 10.60404,-33.22693 -2.23323,-43.92841 -6.39601,-5.33187 -14.47651,-7.06484 -22.35419,-4.79414 -6.71979,1.93694 -12.95708,7.49365 -16.20822,14.43966 -1.94179,4.1486 -2.69183,7.36978 -2.84933,12.23699 -0.1739,5.37344 0.53465,9.30945 2.4805,13.77939 2.95949,6.79846 8.75264,12.45004 15.12409,14.75454 3.98177,1.44017 9.30481,1.78354 13.37317,0.86264 z M 93.562488,266.85915 C 74.931696,266.1778 61.573563,265.0201 48.370752,262.94255 24.706333,259.21879 10.988876,253.40125 7.5504865,245.63075 l -0.6054904,-1.36835 -0.07217,-7.75092 c -0.340209,-36.55861 5.5616179,-60.76677 18.8409219,-77.28188 7.520642,-9.35323 18.261707,-16.19389 30.685964,-19.54298 1.797915,-0.48465 3.568,-0.96374 3.933519,-1.06466 l 0.664584,-0.18348 0.06112,-3.74349 c 0.03366,-2.05892 -0.02319,-3.74349 -0.126378,-3.74349 -0.103143,0 -1.417626,-0.78278 -2.921081,-1.73952 C 49.461407,123.77107 43.088054,116.27465 38.742338,106.54741 30.944241,89.092495 32.742307,67.644939 43.311446,52.046691 50.924464,40.811167 61.858947,33.563504 74.510992,31.366804 c 3.385626,-0.587825 10.384986,-0.580917 13.824206,0.01364 10.162782,1.756912 19.395552,6.928274 26.533122,14.861452 12.8372,14.268133 17.23914,35.193912 11.40859,54.233724 -2.20131,7.18844 -5.67984,13.48314 -10.56169,19.11226 -3.95067,4.55542 -7.51648,7.60235 -12.02018,10.27106 l -2.05143,1.21559 0.0577,3.65606 0.0577,3.65605 4.20904,1.17559 c 2.31496,0.64658 5.50497,1.6935 7.0889,2.32649 4.10824,1.64179 9.9124,4.87486 13.40245,7.46555 l 2.99063,2.21994 -0.0719,1.9801 -0.0719,1.98008 -2.34565,1.37897 c -1.29011,0.75843 -3.01363,1.85893 -3.83005,2.44556 l -1.4844,1.06659 -1.6671,-1.07324 c -2.71618,-1.74862 -4.72312,-2.39031 -7.47586,-2.39031 -1.94969,0 -2.61244,0.10828 -4.09614,0.66925 -2.86543,1.08338 -5.12898,2.85087 -6.79795,5.30817 -0.32171,0.47366 -3.20287,5.89929 -6.402592,12.05696 -6.74713,12.98446 -6.93074,13.45386 -6.93006,17.71636 4.4e-4,2.42396 0.0833,3.08848 0.57845,4.63446 0.31791,0.99261 0.90905,2.41486 1.31366,3.16056 0.98062,1.80727 3.4865,4.40246 5.4183,5.61139 l 1.566532,0.98034 -0.004,5.08393 -0.004,5.08392 -1.680082,1.05376 c -2.417,1.51593 -4.81932,4.24871 -5.86582,6.67267 -1.59815,3.70171 -1.86603,7.8502 -0.73931,11.44889 0.31128,0.9942 3.02228,6.51217 6.49563,13.2212 7.204302,13.91567 7.815672,14.75356 12.240032,16.77491 l 1.25328,0.57259 -6.75661,-0.0437 c -3.71613,-0.024 -7.554112,-0.0728 -8.528832,-0.10849 z"
       id="path3724"
       inkscape:connector-curvature="0" />
  </g>
</svg>
