<?xml version="1.0" encoding="UTF-8" standalone="no"?>
<!-- Generator: Adobe Illustrator 16.0.0, SVG Export Plug-In . SVG Version: 6.00 Build 0)  -->

<svg
   xmlns:dc="http://purl.org/dc/elements/1.1/"
   xmlns:cc="http://creativecommons.org/ns#"
   xmlns:rdf="http://www.w3.org/1999/02/22-rdf-syntax-ns#"
   xmlns:svg="http://www.w3.org/2000/svg"
   xmlns="http://www.w3.org/2000/svg"
   xmlns:sodipodi="http://sodipodi.sourceforge.net/DTD/sodipodi-0.dtd"
   xmlns:inkscape="http://www.inkscape.org/namespaces/inkscape"
   version="1.1"
   id="Capa_1"
   x="0px"
   y="0px"
   width="512"
   height="512"
   viewBox="0 0 512.00002 512.00002"
   xml:space="preserve"
   sodipodi:docname="guard.svg"
   inkscape:version="0.92.3 (2405546, 2018-03-11)"><metadata
   id="metadata63"><rdf:RDF><cc:Work
       rdf:about=""><dc:format>image/svg+xml</dc:format><dc:type
         rdf:resource="http://purl.org/dc/dcmitype/StillImage" /><dc:title /></cc:Work></rdf:RDF></metadata><defs
   id="defs61"><clipPath
     clipPathUnits="userSpaceOnUse"
     id="clipPath95"><g
       id="g113"
       transform="matrix(0.63616658,0,0,0.74018128,85.876491,75.794967)"
       style="fill:#000000">
	<g
   id="g111"
   style="fill:#000000">
		<path
   d="m 339.53,294.39 c -40.824,-15.701 -52.602,-20.406 -56.525,-21.195 -0.789,0 -2.352,0 -3.142,0.789 l -36.9,25.114 c -0.781,0.79 -1.562,1.571 -1.562,3.142 0,0.782 0,2.353 0.781,3.143 l 18.843,18.839 -21.195,21.195 c -1.574,1.574 -1.574,3.927 0,5.498 l 18.835,24.333 -25.903,51.816 c -0.782,1.566 -0.782,2.355 0,3.927 0.789,0.781 2.352,1.563 3.142,1.563 h 157.007 c 2.356,0 3.928,-1.563 3.928,-3.924 1.568,-18.057 7.058,-109.118 -57.309,-134.24 z"
   id="path97"
   inkscape:connector-curvature="0"
   style="fill:#000000" />
		<path
   d="m 173.885,374.466 18.841,-24.342 c 1.571,-1.562 0.786,-3.927 0,-5.49 l -21.197,-21.195 18.843,-18.847 c 0.782,-0.781 1.569,-2.353 0.782,-3.134 0,-0.789 -0.782,-2.36 -1.567,-3.142 l -36.898,-25.122 c -0.786,-0.786 -2.354,-0.786 -3.14,-0.786 -3.14,0.786 -14.913,5.498 -56.522,21.199 -64.373,25.905 -58.881,116.966 -57.308,135.023 0,2.36 1.571,3.924 3.923,3.924 h 157.009 v 0 c 1.571,0 2.353,-0.782 3.14,-1.563 0.786,-0.789 0.786,-2.36 0,-3.927 z"
   id="path99"
   inkscape:connector-curvature="0"
   style="fill:#000000" />
		<path
   d="m 242.962,373.676 -21.19,-26.686 20.409,-20.417 c 0.781,-0.782 0.781,-1.563 0.781,-3.135 0,-1.574 -0.781,-2.355 -0.781,-3.146 L 219.414,297.53 c -1.566,-1.571 -3.925,-1.571 -5.492,0 l -22.77,22.762 c -1.567,1.571 -1.567,3.928 0,5.498 l 20.412,20.406 -21.193,26.697 c -0.785,0.781 -0.785,2.353 -0.785,3.924 l 23.551,51.812 c 0.786,1.571 2.353,2.36 3.926,2.36 1.566,0 3.138,-0.789 3.925,-2.36 l 23.546,-51.812 c 0,0.002 0,-1.569 -1.572,-3.141 z"
   id="path101"
   inkscape:connector-curvature="0"
   style="fill:#000000" />
		<path
   d="m 297.917,140.522 c -20.41,-10.99 -51.026,-17.268 -81.639,-17.268 -30.617,0 -61.233,6.278 -81.643,17.268 -0.788,0.786 -1.573,1.571 -1.573,2.356 0,0.784 0,2.354 0.786,3.14 17.274,26.692 63.59,27.477 73.007,27.477 v 0 h 20.407 c 9.422,0 55.743,-1.573 73.016,-27.477 0.781,-0.785 0.781,-2.356 0.781,-3.14 -1.571,-0.785 -2.353,-2.356 -3.142,-2.356 z"
   id="path103"
   inkscape:connector-curvature="0"
   style="fill:#000000" />
		<path
   d="m 216.277,261.417 v 0 0 c 52.597,-0.781 94.984,-43.176 94.984,-95.771 0,-1.571 0,-3.925 0,-6.282 0,-1.569 -0.781,-3.14 -2.353,-3.14 -1.57,-0.788 -3.142,0 -3.923,0.786 -22.771,22.764 -64.376,25.122 -76.935,25.122 h -21.197 c -12.558,0 -54.167,-1.571 -76.933,-25.122 -0.786,-0.786 -2.353,-1.573 -3.923,-0.786 -1.573,0.786 -2.354,1.571 -2.354,3.14 0,2.356 0,3.923 0,6.282 -2.358,52.595 40.035,94.989 92.634,95.771 z"
   id="path105"
   inkscape:connector-curvature="0"
   style="fill:#000000" />
		<path
   d="m 114.222,108.335 c 1.571,0.786 3.138,1.571 4.711,0.786 14.128,-7.851 58.091,-21.193 96.557,-21.193 39.247,0 83.216,13.343 97.347,21.193 0.781,0 1.57,0.785 1.57,0.785 0.782,0 1.571,0 2.353,-0.785 9.422,-8.636 16.482,-14.914 18.843,-17.269 1.567,-1.571 1.567,-3.925 0.782,-5.496 -0.782,-0.787 -1.571,-1.573 -2.353,-3.14 -3.924,-3.925 -9.422,-10.209 -11.774,-20.412 l -1.574,-5.498 C 319.113,43.178 318.331,37.682 304.201,36.113 h -3.923 C 285.358,34.542 261.806,32.188 242.964,15.701 227.261,1.573 220.988,0 216.277,0 c -4.713,0 -10.991,1.573 -26.691,15.701 -18.841,16.487 -42.391,18.841 -57.31,20.412 h -3.926 c -14.128,1.569 -15.701,7.065 -18.053,20.412 l -1.573,5.494 c -2.353,10.207 -7.851,15.701 -11.776,20.412 -0.782,0.785 -1.567,2.352 -2.353,3.138 -1.571,1.573 -0.786,3.925 0.786,5.498 3.14,2.352 9.418,8.636 18.841,17.268 z"
   id="path107"
   inkscape:connector-curvature="0"
   style="fill:#000000" />
		<path
   d="m 307.338,131.103 c 0.789,-0.785 1.57,-1.571 2.352,-3.142 l 1.571,-7.851 c 0,-1.569 -0.781,-3.925 -2.353,-3.925 -10.992,-4.707 -50.245,-18.841 -91.846,-18.841 -42.393,0 -80.862,14.134 -91.853,18.841 -1.567,0.785 -2.353,2.356 -2.353,3.925 l 1.567,7.851 c 0,1.571 0.785,2.356 2.358,3.142 0.785,0 0.785,0.783 1.566,0.783 0.786,0 1.571,0 1.571,-0.783 22.766,-10.992 53.383,-17.272 87.927,-17.272 33.755,0 65.156,6.28 87.919,17.272 -0.778,0 0.793,0 1.574,0 z"
   id="path109"
   inkscape:connector-curvature="0"
   style="fill:#000000" />
	</g>
</g></clipPath></defs><sodipodi:namedview
   pagecolor="#ffffff"
   bordercolor="#666666"
   borderopacity="1"
   objecttolerance="10"
   gridtolerance="10"
   guidetolerance="10"
   inkscape:pageopacity="0"
   inkscape:pageshadow="2"
   inkscape:window-width="1600"
   inkscape:window-height="844"
   id="namedview59"
   showgrid="false"
   inkscape:zoom="0.70710678"
   inkscape:cx="-216.41991"
   inkscape:cy="407.61237"
   inkscape:window-x="0"
   inkscape:window-y="28"
   inkscape:window-maximized="1"
   inkscape:current-layer="Capa_1"
   showguides="false" />
<path
   style="fill:#000000;stroke-width:1.17254412"
   d="m 258.57201,9.132812 c -77.83505,4.246e-4 -140.93269,28.810668 -140.934,64.350139 0.0286,20.97948 22.45302,40.635549 60.08853,52.670339 11.86657,21.73002 50.35607,41.79483 81.52559,41.80238 30.32546,-0.11479 70.59571,-19.87488 81.50153,-42.29339 36.8212,-12.06747 58.68484,-31.484296 58.75475,-52.179329 C 399.50741,37.943053 336.408,9.132632 258.57201,9.132812 Z m -85.0175,139.974138 c -1.30747,8.15782 -3.50125,5.9171 -3.51356,14.25931 7.12375,66.16613 40.20709,119.8042 89.80238,119.80511 49.59645,9.7e-4 81.15222,-53.17845 89.80238,-119.80511 -0.0341,-8.20543 -2.49537,-5.34733 -3.78273,-13.3711 -23.07189,40.68525 -85.40923,38.59438 -85.40923,38.59438 0,0 -57.37306,2.53293 -86.89924,-39.48259 z m 8.26719,146.72627 c -51.4517,28.56034 -76.43802,26.86506 -103.661938,38.21245 -22.210527,13.12577 -27.477179,51.37103 -33.273042,70.3166 0,0 37.020278,48.53203 115.54361,81.71705 47.28493,19.98323 97.99961,18.13139 98.01671,18.13074 h 0.002 c 0.0171,6.5e-4 50.73421,1.85249 98.01911,-18.13074 78.52334,-33.18502 115.54121,-81.71705 115.54121,-81.71705 -5.79584,-18.94557 -11.0649,-57.19082 -33.27545,-70.3166 -27.22391,-11.34739 -52.2102,-9.65211 -103.66195,-38.21245 l 0.10333,5.60201 c -10.48438,78.18143 -67.35359,151.0407 -67.35359,151.0407 l 23.79942,-103.71049 -33.17211,-25.75141 -33.17692,25.75141 23.79942,103.71049 c 0,0 -56.86923,-72.85927 -67.35359,-151.0407 z m 153.51983,110.26182 h 84.01294 v 26.20969 h -84.01294 z"
   id="rect32"
   inkscape:connector-curvature="0"
   sodipodi:nodetypes="cccccccccccccccccsccscccccccccccccccc" />
<g
   id="g28"
   transform="matrix(1.0176991,0,0,0.98712447,-29.057522,64.94753)">
</g>
<g
   id="g30"
   transform="matrix(1.0176991,0,0,0.98712447,-29.057522,64.94753)">
</g>
<g
   id="g32"
   transform="matrix(1.0176991,0,0,0.98712447,-29.057522,64.94753)">
</g>
<g
   id="g34"
   transform="matrix(1.0176991,0,0,0.98712447,-29.057522,64.94753)">
</g>
<g
   id="g36"
   transform="matrix(1.0176991,0,0,0.98712447,-29.057522,64.94753)">
</g>
<g
   id="g38"
   transform="matrix(1.0176991,0,0,0.98712447,-29.057522,64.94753)">
</g>
<g
   id="g40"
   transform="matrix(1.0176991,0,0,0.98712447,-29.057522,64.94753)">
</g>
<g
   id="g42"
   transform="matrix(1.0176991,0,0,0.98712447,-29.057522,64.94753)">
</g>
<g
   id="g44"
   transform="matrix(1.0176991,0,0,0.98712447,-29.057522,64.94753)">
</g>
<g
   id="g46"
   transform="matrix(1.0176991,0,0,0.98712447,-29.057522,64.94753)">
</g>
<g
   id="g48"
   transform="matrix(1.0176991,0,0,0.98712447,-29.057522,64.94753)">
</g>
<g
   id="g50"
   transform="matrix(1.0176991,0,0,0.98712447,-29.057522,64.94753)">
</g>
<g
   id="g52"
   transform="matrix(1.0176991,0,0,0.98712447,-29.057522,64.94753)">
</g>
<g
   id="g54"
   transform="matrix(1.0176991,0,0,0.98712447,-29.057522,64.94753)">
</g>
<g
   id="g56"
   transform="matrix(1.0176991,0,0,0.98712447,-29.057522,64.94753)">
</g>
</svg>