<?xml version="1.0" encoding="UTF-8" standalone="no"?>
<!-- Created with Inkscape (http://www.inkscape.org/) -->

<svg
   xmlns:dc="http://purl.org/dc/elements/1.1/"
   xmlns:cc="http://creativecommons.org/ns#"
   xmlns:rdf="http://www.w3.org/1999/02/22-rdf-syntax-ns#"
   xmlns:svg="http://www.w3.org/2000/svg"
   xmlns="http://www.w3.org/2000/svg"
   xmlns:sodipodi="http://sodipodi.sourceforge.net/DTD/sodipodi-0.dtd"
   xmlns:inkscape="http://www.inkscape.org/namespaces/inkscape"
   width="100mm"
   height="38mm"
   viewBox="0 0 100 38"
   version="1.1"
   id="svg8"
   inkscape:version="0.92.3 (2405546, 2018-03-11)"
   sodipodi:docname="logo.svg">
  <defs
     id="defs2">
    <filter
       style="color-interpolation-filters:sRGB"
       inkscape:label="Edge Detect"
       id="filter114">
      <feConvolveMatrix
         in="SourceGraphic"
         kernelMatrix="0 1 0 1 -4 1 0 1 0"
         order="3 3"
         bias="0"
         divisor="1"
         targetX="1"
         targetY="1"
         preserveAlpha="true"
         result="convolve"
         id="feConvolveMatrix112" />
    </filter>
  </defs>
  <sodipodi:namedview
     id="base"
     pagecolor="#ffffff"
     bordercolor="#666666"
     borderopacity="1.0"
     inkscape:pageopacity="0.0"
     inkscape:pageshadow="2"
     inkscape:zoom="2"
     inkscape:cx="325.41209"
     inkscape:cy="95.654076"
     inkscape:document-units="mm"
     inkscape:current-layer="use3966"
     showgrid="false"
     inkscape:window-width="1600"
     inkscape:window-height="841"
     inkscape:window-x="0"
     inkscape:window-y="28"
     inkscape:window-maximized="1"
     showguides="false" />
  <metadata
     id="metadata5">
    <rdf:RDF>
      <cc:Work
         rdf:about="">
        <dc:format>image/svg+xml</dc:format>
        <dc:type
           rdf:resource="http://purl.org/dc/dcmitype/StillImage" />
        <dc:title></dc:title>
      </cc:Work>
    </rdf:RDF>
  </metadata>
  <g
     inkscape:label="Capa 1"
     inkscape:groupmode="layer"
     id="layer1"
     transform="translate(0,-259)">
    <path
       style="fill:#000080;stroke-width:0.50507629"
       d=""
       id="path145"
       inkscape:connector-curvature="0"
       transform="scale(0.26458333)" />
    <g
       id="use3966"
       inkscape:tile-x0="22.718668"
       inkscape:tile-y0="25.040092"
       transform="translate(29.924526,-7.470916)">
      <path
         id="path3980"
         style="fill:#000080;stroke-width:0.07004289"
         d="m 12.922628,292.89225 c 1.2897,-2.67939 3.23379,-3.33837 5.34673,-5.78622 -1.298,5.02875 -0.85393,8.30788 -5.11523,10.55623 -1.04462,-1.82199 -0.70756,-3.781 -0.2315,-4.77001 z m -7.0684205,0.91472 c 0.13043,-3.1802 5.3056505,-5.78091 11.0828705,-7.95557 -2.19937,2.9903 -4.15997,5.05859 -5.47546,5.96333 -2.08697,1.43533 -3.44368,2.22483 -5.6074105,1.99224 z m -4.29796,6.38829 c -0.9525,-2.84434 -4.89703,-3.48905 -5.84284,-4.64051 -0.9425,-1.28125 0.93244,-2.08878 1.57518,-3.70133 -2.51228,0.97983 -6.762739,1.14756 -11.1248125,-1.69648 2.533852,0.3806 6.9925255,0.62999 9.0745725,-0.992 -4.457851,0.67441 -11.4785535,-1.18351 -14.6328175,-4.66771 2.878868,1.85596 10.5760415,3.01706 13.1260755,1.3471 -9.2270435,0.27922 -11.9845455,-1.50546 -23.6561315,-9.46477 19.407546,8.75393 25.1379835,3.40612 29.9814535,7.67563 2.7822,2.70556 -0.82693,6.04942 -1.60182,8.06261 -0.37615,1.21409 -0.17917,2.23914 0.5993,3.11858 1.18812,1.56056 2.51604,3.21357 2.64249,5.14685 -0.0106,-2e-4 -0.0738,-0.0848 -0.14067,-0.18795 z m -0.12538,-8.70308 c 1.36001,-3.73805 3.27172,-6.96794 3.15436,-10.13135 1.26069,1.58854 1.74775,2.31286 3.9364705,3.08011 2.18874,0.76726 4.19328,0.52501 7.84383,-0.93526 -3.49894,3.60525 -6.86922,4.25505 -9.79698,5.23267 -1.7415705,0.56774 -3.3460105,1.31688 -5.1376805,2.75383 z M 6.997568,266.47091 c -0.23548,2.69372 -0.8042405,5.2316 -0.16424,7.43018 l -0.33116,0.77344 c -1.0815505,2.5535 -1.3475405,3.22297 -1.4187205,5.62661 1.4692605,3.32568 6.8195805,5.11408 10.8426305,2.13039 -1.7912,0.5637 -4.52831,0.0557 -5.22144,-1.09417 -0.57937,-1.08411 -0.73932,-2.66971 1.20185,-4.55119 1.61775,1.69585 1.84382,2.50647 4.77813,3.48074 0.43195,2.27057 1.62433,5.15878 3.34771,6.49941 1.67544,-1.34417 2.89285,-4.114 3.43384,-6.49941 2.93432,-0.97427 3.16038,-1.78489 4.77815,-3.48074 1.94114,1.88148 1.78121,3.46708 1.20184,4.55119 -0.69315,1.14994 -3.43024,1.65787 -5.22146,1.09417 4.02306,2.98369 9.37339,1.19529 10.84264,-2.13039 -0.0712,-2.40364 -0.33717,-3.07311 -1.41872,-5.62661 l -0.33115,-0.77344 c 0.49365,-2.4388 0.3634,-5.21239 -0.16426,-7.43018 -1.17765,1.21706 -2.28154,2.11559 -3.64964,2.83483 -3.1361,-1.04519 -5.38711,-2.42634 -9.34312,-2.43404 -3.95603,-0.008 -6.28101,1.08711 -9.51323,2.43404 -1.38547,-0.75112 -2.75161,-1.8162 -3.64965,-2.83483 z m 13.07783,2.43404 c 1.87881,0 3.4019,1.53662 3.40194,3.43216 -4e-5,1.89554 -1.52313,3.43216 -3.40194,3.43216 -1.87881,0 -3.40191,-1.53662 -3.40195,-3.43216 4e-5,-1.89554 1.52314,-3.43216 3.40195,-3.43216 z m 50.00008,7.4749 c -19.40755,8.75393 -25.13778,3.40579 -29.98124,7.67531 -2.7822,2.70554 0.82668,6.04965 1.60157,8.06284 0.37616,1.2141 0.17941,2.23914 -0.59905,3.11858 -1.18812,1.56056 -2.51592,3.21359 -2.64237,5.14687 0.0106,-2e-4 0.0735,-0.0851 0.14034,-0.18825 0.9525,-2.84434 4.89703,-3.48861 5.84284,-4.64007 0.94249,-1.28125 -0.93226,-2.08902 -1.575,-3.70157 2.51229,0.97983 6.76282,1.14756 11.1249,-1.69648 -2.53384,0.38059 -6.99264,0.62994 -9.07468,-0.99205 4.45783,0.6744 11.47834,-1.18348 14.63262,-4.66768 -2.87888,1.85596 -10.57563,3.01697 -13.12567,1.34703 9.22703,0.27921 11.98415,-1.50522 23.65574,-9.46453 z m -34.50955,4.98124 c -1.26068,1.58854 -1.74795,2.31269 -3.93668,3.07995 -2.18874,0.76726 -4.19306,0.52509 -7.84361,-0.93519 3.49894,3.60526 6.86931,4.2548 9.79707,5.23244 1.74155,0.56773 3.34581,1.31728 5.13747,2.75423 -1.36002,-3.73805 -3.2716,-6.96801 -3.15425,-10.13143 z m -12.35171,4.49046 c 2.19938,2.99032 4.16005,5.05863 5.47554,5.96336 2.08696,1.43534 3.44363,2.22499 5.60737,1.9924 -0.13044,-3.1802 -5.30569,-5.78109 -11.08291,-7.95576 z m -1.33261,1.25484 c 1.298,5.02875 0.85384,8.3076 5.11515,10.55595 1.04461,-1.82198 0.7078,-3.78078 0.23174,-4.76981 -1.28969,-2.67938 -3.23396,-3.33829 -5.34689,-5.78614 z m -1.85034,0.74804 c -1.27883,1.78408 -1.74809,4.28638 -1.73977,6.28245 0.008,1.99608 0.50115,3.06442 1.80782,5.58575 1.12226,-2.43027 1.57803,-3.61311 1.56754,-5.61114 -0.0105,-1.99802 -0.33877,-4.37011 -1.63559,-6.25706 z m -13.34411,1.88639 c -1.6984705,0.32641 -5.1007805,2.55672 -4.8562905,4.9818 -0.13397,5.66061 11.5982505,9.75155 18.2445305,9.74829 6.64627,-0.003 18.37899,-4.08746 18.24505,-9.74774 0.2445,-2.42507 -3.15781,-4.65538 -4.85627,-4.9818 1.35207,1.66297 2.20374,3.22086 1.75146,4.99064 -1.21519,0.76842 -4.2544,0.26676 -6.50408,-1.56289 0.73613,2.79057 0.58799,4.48872 -0.96744,6.52757 -2.31358,-0.57299 -4.16216,-2.31057 -5.0083,-4.28289 -0.0445,2.78672 -0.78731,4.51903 -2.66042,6.20572 -1.87296,-1.68659 -2.61532,-3.41909 -2.65991,-6.20572 -0.84614,1.97232 -2.69523,3.7099 -5.00882,4.28289 -1.55543,-2.03885 -1.70304,-3.73755 -0.96691,-6.52812 -2.24968,1.82964 -5.2889005,2.33186 -6.5040905,1.56344 -0.45227,-1.76978 0.39941,-3.32823 1.7514905,-4.99119 z"
         inkscape:connector-curvature="0" />
    </g>
    <g
       id="use3968"
       inkscape:tile-x0="22.718668"
       inkscape:tile-y0="25.040092"
       transform="matrix(-1,0,0,1,223.53734,-0.13477249)" />
  </g>
</svg>
