<?xml version="1.0" encoding="iso-8859-1"?>
<!-- Generator: Adobe Illustrator 16.0.0, SVG Export Plug-In . SVG Version: 6.00 Build 0)  -->
<!DOCTYPE svg PUBLIC "-//W3C//DTD SVG 1.1//EN" "http://www.w3.org/Graphics/SVG/1.1/DTD/svg11.dtd">
<svg version="1.1" id="Capa_1" xmlns="http://www.w3.org/2000/svg" xmlns:xlink="http://www.w3.org/1999/xlink" x="0px" y="0px"
	 width="46px" height="46px" viewBox="0 0 46 46" style="enable-background:new 0 0 46 46;" xml:space="preserve">
<g>
	<g id="Hash">
		<g>
			<path d="M32,18h-3.375L29,15c0-0.553-0.447-1-1-1h-1c-0.553,0-1,0.447-1,1l-0.375,3h-4L22,15c0-0.553-0.447-1-1-1h-1
				c-0.553,0-1,0.447-1,1l-0.375,3H15c-0.553,0-1,0.447-1,1v1c0,0.553,0.447,1,1,1h3.25l-0.5,4H14c-0.553,0-1,0.447-1,1v1
				c0,0.553,0.447,1,1,1h3.375L17,31c0,0.553,0.447,1,1,1h1c0.553,0,1-0.447,1-1l0.375-3h4L24,31c0,0.553,0.447,1,1,1h1
				c0.553,0,1-0.447,1-1l0.375-3H31c0.553,0,1-0.447,1-1v-1c0-0.553-0.447-1-1-1h-3.25l0.5-4H32c0.553,0,1-0.447,1-1v-1
				C33,18.447,32.553,18,32,18z M24.75,25h-4l0.5-4h4L24.75,25z M23,0C10.298,0,0,10.298,0,23s10.298,23,23,23s23-10.298,23-23
				S35.702,0,23,0z M23,42C12.507,42,4,33.493,4,23S12.507,4,23,4s19,8.507,19,19S33.493,42,23,42z"/>
		</g>
	</g>
</g>
<g>
</g>
<g>
</g>
<g>
</g>
<g>
</g>
<g>
</g>
<g>
</g>
<g>
</g>
<g>
</g>
<g>
</g>
<g>
</g>
<g>
</g>
<g>
</g>
<g>
</g>
<g>
</g>
<g>
</g>
</svg>
