<?xml version="1.0" standalone="no"?><!DOCTYPE svg PUBLIC "-//W3C//DTD SVG 1.1//EN" "http://www.w3.org/Graphics/SVG/1.1/DTD/svg11.dtd"><svg class="icon" height="512" viewBox="0 0 1024 1024" version="1.1" xmlns="http://www.w3.org/2000/svg"><path d="M722.723364 431.420359c-8.027557 0-16.906521-2.432593-23.231263-6.689631-40.745932-28.461337-78.329493-66.044898-114.575127-114.575128l-0.364889-0.729777-0.364889-0.729778c-2.432593-4.865186-5.230075-10.581779-5.230075-19.339114 0-2.432593 0.729778-4.865186 1.459556-7.419409 0.364889-0.729778 0.364889-1.459556 0.729777-1.702815v-1.459556l0.729778-1.702815c16.906521-43.543414 45.732747-72.004751 85.748902-85.384012 2.797482-1.094667 5.594964-1.459556 9.122223-1.459556 8.027557 0 16.906521 2.432593 23.231263 6.689631 40.745932 28.461337 77.964604 65.68001 114.210239 113.84535 3.162371 3.162371 10.21689 10.946668 6.68963 23.231262-0.364889 1.702815-0.729778 3.892149-1.459556 5.594964-0.364889 0.729778-0.364889 1.459556-0.729778 1.702815v1.459556l-0.729777 1.702815c-16.906521 43.543414-45.732747 72.004751-85.748902 85.384012-3.162371 1.216296-5.959853 1.581185-9.487112 1.581186m-95.600903-145.469058c24.2043 34.056301 55.828008 65.68001 96.69557 96.33068 25.298967-10.21689 41.110821-26.758522 48.530229-50.233044-24.2043-34.42119-55.828008-66.044898-97.060459-96.69557-22.501485 9.487112-38.313339 25.907115-48.16534 50.597934m0 0M926.574653 687.572396h-200.688918c-18.609336 0-33.691412 15.082076-33.691413 33.691412 0 18.609336 15.082076 33.691412 33.691413 33.691412h200.688918c18.609336 0 33.691412-15.082076 33.691412-33.691412 0-18.122817-15.082076-33.691412-33.691412-33.691412zM634.906759 687.572396h-0.364889c-18.609336 0-33.691412 15.082076-33.691413 33.691412 0 18.609336 15.082076 33.691412 33.691413 33.691412h0.364889c18.609336 0 33.691412-15.082076 33.691412-33.691412 0-18.122817-15.446965-33.691412-33.691412-33.691412zM926.574653 539.305856h-200.688918c-18.609336 0-33.691412 15.082076-33.691413 33.691412 0 18.609336 15.082076 33.691412 33.691413 33.691412h200.688918c18.609336 0 33.691412-15.082076 33.691412-33.691412 0-18.609336-15.082076-33.691412-33.691412-33.691412zM634.906759 539.305856h-0.364889c-18.609336 0-33.691412 15.082076-33.691413 33.691412 0 18.609336 15.082076 33.691412 33.691413 33.691412h0.364889c18.609336 0 33.691412-15.082076 33.691412-33.691412 0-18.609336-15.446965-33.691412-33.691412-33.691412zM634.906759 836.325454h-0.364889c-18.609336 0-33.691412 15.082076-33.691413 33.691413 0 18.609336 15.082076 33.691412 33.691413 33.691412h0.364889c18.609336 0 33.691412-15.082076 33.691412-33.691412 0-18.609336-15.446965-33.691412-33.691412-33.691413zM926.574653 836.325454h-200.688918c-18.609336 0-33.691412 15.082076-33.691413 33.691413 0 18.609336 15.082076 33.691412 33.691413 33.691412h200.688918c18.609336 0 33.691412-15.082076 33.691412-33.691412 0-18.609336-15.082076-33.691412-33.691412-33.691413zM677.355505 65.55838C523.737261 65.55838 398.701984 190.958546 398.701984 344.211902c0 36.853783 6.324742 69.207269 19.339114 101.560755L78.816011 784.997743c-10.946668 10.946668-15.082076 19.339114-15.082076 34.42119v84.410976c0 30.285782 26.028745 56.192897 56.192897 56.192897h84.410975c15.082076 0 23.839411-6.324742 34.421191-15.082077l40.745931-41.11082h64.706973c30.164153 0 56.192897-26.028745 56.192897-56.192897v-56.192897H456.597696c30.285782 0 56.192897-26.028745 56.192897-56.192898v-64.706972l31.258819-31.258819v-82.100012l-20.433781 20.433781-54.125193 54.125193c-10.946668 10.946668-17.27141 23.839411-17.27141 39.043116v64.706973h-56.192897c-30.285782 0-56.192897 26.028745-56.192897 56.192897v56.192897h-64.463713c-15.082076 0-28.096449 6.324742-39.043116 17.27141l-38.678228 39.043116h-80.153938v-79.789048l326.210714-326.210714 41.110821-41.110821c-19.339114-32.353486-32.353486-71.396603-32.353486-112.507423 0-122.967573 99.493051-222.460625 222.460624-222.460625S897.383537 221.244328 897.383537 344.211902c0.729778 42.205488-10.21689 81.491864-29.556004 115.304905h67.139565c16.176743-35.150968 24.934078-74.194085 24.934078-115.304905-3.770519-153.496615-129.292315-278.653522-282.545671-278.653522z" /></svg>