<?xml version="1.0" encoding="iso-8859-1"?>
<!-- Generator: Adobe Illustrator 18.0.0, SVG Export Plug-In . SVG Version: 6.00 Build 0)  -->
<!DOCTYPE svg PUBLIC "-//W3C//DTD SVG 1.1//EN" "http://www.w3.org/Graphics/SVG/1.1/DTD/svg11.dtd">
<svg version="1.1" id="Capa_1" xmlns="http://www.w3.org/2000/svg" xmlns:xlink="http://www.w3.org/1999/xlink" x="0px" y="0px"
	 viewBox="0 0 170.215 170.215" style="enable-background:new 0 0 170.215 170.215;" xml:space="preserve">
<g>
	<path d="M154.32,69.536h-23.452v-8.759v-15.01c0-21.46-15.234-40.283-36.224-44.756c-6.33-1.349-12.746-1.35-19.074,0
		C54.581,5.484,39.347,24.307,39.347,45.768v15.01v8.759H15.895c-2.209,0-4,1.791-4,4s1.791,4,4,4H154.32c2.209,0,4-1.791,4-4
		S156.529,69.536,154.32,69.536z M92.977,8.836c17.32,3.691,29.892,19.223,29.892,36.932v11.01H47.347v-11.01
		c0-17.709,12.571-33.241,29.892-36.932C82.459,7.724,87.756,7.724,92.977,8.836z"/>
	<path d="M129.41,126.139c-1.438-0.644-3.124-0.383-4.299,0.667l-39.648,35.409h-0.711l-39.648-35.409
		c-1.176-1.051-2.86-1.313-4.299-0.667c-1.438,0.645-2.365,2.074-2.365,3.651v36.425c0,2.209,1.791,4,4,4h40.767
		c0,0,0.012,0,0.019,0h0.018h3.747h3.907h36.879c2.209,0,4-1.791,4-4V129.79C131.775,128.213,130.849,126.783,129.41,126.139z"/>
	<path d="M57.495,115.586h6.999c8.43,0,15.456-6.051,16.706-14.387l1.563-10.421h4.688l1.563,10.421
		c1.25,8.336,8.276,14.387,16.706,14.387h6.999c8.716,0,15.942-6.54,16.81-15.212l1.759-17.597h-4.42H86.252h-2.289H43.347h-4.42
		l1.759,17.597C41.553,109.047,48.779,115.586,57.495,115.586z"/>
</g>
<g>
</g>
<g>
</g>
<g>
</g>
<g>
</g>
<g>
</g>
<g>
</g>
<g>
</g>
<g>
</g>
<g>
</g>
<g>
</g>
<g>
</g>
<g>
</g>
<g>
</g>
<g>
</g>
<g>
</g>
</svg>
