<?xml version="1.0" encoding="UTF-8" standalone="no"?>
<!-- Generator: Adobe Illustrator 16.0.0, SVG Export Plug-In . SVG Version: 6.00 Build 0)  -->

<svg
   xmlns:dc="http://purl.org/dc/elements/1.1/"
   xmlns:cc="http://creativecommons.org/ns#"
   xmlns:rdf="http://www.w3.org/1999/02/22-rdf-syntax-ns#"
   xmlns:svg="http://www.w3.org/2000/svg"
   xmlns="http://www.w3.org/2000/svg"
   xmlns:sodipodi="http://sodipodi.sourceforge.net/DTD/sodipodi-0.dtd"
   xmlns:inkscape="http://www.inkscape.org/namespaces/inkscape"
   version="1.1"
   id="Capa_1"
   x="0px"
   y="0px"
   width="80.13px"
   height="80.13px"
   viewBox="0 0 80.13 80.13"
   style="enable-background:new 0 0 80.13 80.13;"
   xml:space="preserve"
   sodipodi:docname="users.svg"
   inkscape:version="0.92.3 (2405546, 2018-03-11)"><metadata
   id="metadata41"><rdf:RDF><cc:Work
       rdf:about=""><dc:format>image/svg+xml</dc:format><dc:type
         rdf:resource="http://purl.org/dc/dcmitype/StillImage" /><dc:title></dc:title></cc:Work></rdf:RDF></metadata><defs
   id="defs39" /><sodipodi:namedview
   pagecolor="#ffffff"
   bordercolor="#666666"
   borderopacity="1"
   objecttolerance="10"
   gridtolerance="10"
   guidetolerance="10"
   inkscape:pageopacity="0"
   inkscape:pageshadow="2"
   inkscape:window-width="1600"
   inkscape:window-height="844"
   id="namedview37"
   showgrid="false"
   inkscape:zoom="5.8904283"
   inkscape:cx="41.162184"
   inkscape:cy="26.236654"
   inkscape:window-x="0"
   inkscape:window-y="28"
   inkscape:window-maximized="1"
   inkscape:current-layer="Capa_1" />
<g
   id="g196"
   transform="matrix(0.15633361,0,0,0.18526129,-0.65281328,-7.4031289)"><g
     id="g140">
	
</g><g
     id="g142">
</g><g
     id="g144">
</g><g
     id="g146">
</g><g
     id="g148">
</g><g
     id="g150">
</g><g
     id="g152">
</g><g
     id="g154">
</g><g
     id="g156">
</g><g
     id="g158">
</g><g
     id="g160">
</g><g
     id="g162">
</g><g
     id="g164">
</g><g
     id="g166">
</g><g
     id="g168">
</g><g
     id="g170">
</g></g>
<g
   id="g6">
</g>
<g
   id="g8">
</g>
<g
   id="g10">
</g>
<g
   id="g12">
</g>
<g
   id="g14">
</g>
<g
   id="g16">
</g>
<g
   id="g18">
</g>
<g
   id="g20">
</g>
<g
   id="g22">
</g>
<g
   id="g24">
</g>
<g
   id="g26">
</g>
<g
   id="g28">
</g>
<g
   id="g30">
</g>
<g
   id="g32">
</g>
<g
   id="g34">
</g>
<path
   id="path43"
   style="fill:#000000;stroke-width:0.17159873"
   d="m 9.695745,79.187968 c 3.368408,-8.364248 11.874796,-14.05376 23.761315,-15.892797 2.939523,-0.454792 8.289421,-0.419837 11.534441,0.07536 4.767705,0.727563 8.438353,1.817973 12.141522,3.606787 4.760063,2.299343 8.18998,5.291336 10.485282,9.146551 0.620496,1.042193 1.372833,2.656629 1.647015,3.534355 L 69.384644,80.0402 H 39.368595 9.3525378 Z M 51.97494,41.587994 A 13.581355,14.005773 0 0 1 38.393585,55.593766 13.581355,14.005773 0 0 1 24.81223,41.587994 13.581355,14.005773 0 0 1 38.393585,27.582221 13.581355,14.005773 0 0 1 51.97494,41.587994 Z M 79.389995,47.434213 64.381968,29.649129 V 2.9715033 H 54.376617 V 17.792407 L 39.368591,0.0073227 -0.65281328,47.434213 v 2.964181 H 9.3525378 V 80.0402 H 69.384644 V 50.398394 h 10.005351 z" /></svg>